G04 #@! TF.GenerationSoftware,KiCad,Pcbnew,5.1.10*
G04 #@! TF.CreationDate,2021-10-24T19:29:33+00:00*
G04 #@! TF.ProjectId,stm32-debug-breakout,73746d33-322d-4646-9562-75672d627265,rev?*
G04 #@! TF.SameCoordinates,Original*
G04 #@! TF.FileFunction,Soldermask,Bot*
G04 #@! TF.FilePolarity,Negative*
%FSLAX46Y46*%
G04 Gerber Fmt 4.6, Leading zero omitted, Abs format (unit mm)*
G04 Created by KiCad (PCBNEW 5.1.10) date 2021-10-24 19:29:33*
%MOMM*%
%LPD*%
G01*
G04 APERTURE LIST*
%ADD10C,1.801600*%
%ADD11O,1.801600X1.801600*%
G04 APERTURE END LIST*
D10*
G04 #@! TO.C,J3*
X143510000Y-105410000D03*
X143510000Y-107950000D03*
X143510000Y-110490000D03*
X143510000Y-113030000D03*
X146050000Y-105410000D03*
X146050000Y-107950000D03*
X146050000Y-110490000D03*
G36*
G01*
X146950800Y-112394141D02*
X146950800Y-113665859D01*
G75*
G02*
X146685859Y-113930800I-264941J0D01*
G01*
X145414141Y-113930800D01*
G75*
G02*
X145149200Y-113665859I0J264941D01*
G01*
X145149200Y-112394141D01*
G75*
G02*
X145414141Y-112129200I264941J0D01*
G01*
X146685859Y-112129200D01*
G75*
G02*
X146950800Y-112394141I0J-264941D01*
G01*
G37*
G04 #@! TD*
D11*
G04 #@! TO.C,J2*
X154940000Y-93980000D03*
X157480000Y-93980000D03*
X154940000Y-96520000D03*
X157480000Y-96520000D03*
X154940000Y-99060000D03*
X157480000Y-99060000D03*
X154940000Y-101600000D03*
X157480000Y-101600000D03*
X154940000Y-104140000D03*
X157480000Y-104140000D03*
X154940000Y-106680000D03*
X157480000Y-106680000D03*
X154940000Y-109220000D03*
X157480000Y-109220000D03*
X154940000Y-111760000D03*
X157480000Y-111760000D03*
X154940000Y-114300000D03*
X157480000Y-114300000D03*
X154940000Y-116840000D03*
G36*
G01*
X158380800Y-115990000D02*
X158380800Y-117690000D01*
G75*
G02*
X158330000Y-117740800I-50800J0D01*
G01*
X156630000Y-117740800D01*
G75*
G02*
X156579200Y-117690000I0J50800D01*
G01*
X156579200Y-115990000D01*
G75*
G02*
X156630000Y-115939200I50800J0D01*
G01*
X158330000Y-115939200D01*
G75*
G02*
X158380800Y-115990000I0J-50800D01*
G01*
G37*
G04 #@! TD*
G04 #@! TO.C,J1*
X154940000Y-87630000D03*
X154940000Y-85090000D03*
X154940000Y-82550000D03*
X154940000Y-80010000D03*
X154940000Y-77470000D03*
G36*
G01*
X154039200Y-75780000D02*
X154039200Y-74080000D01*
G75*
G02*
X154090000Y-74029200I50800J0D01*
G01*
X155790000Y-74029200D01*
G75*
G02*
X155840800Y-74080000I0J-50800D01*
G01*
X155840800Y-75780000D01*
G75*
G02*
X155790000Y-75830800I-50800J0D01*
G01*
X154090000Y-75830800D01*
G75*
G02*
X154039200Y-75780000I0J50800D01*
G01*
G37*
G04 #@! TD*
M02*
