G04 #@! TF.GenerationSoftware,KiCad,Pcbnew,5.1.10*
G04 #@! TF.CreationDate,2021-10-24T19:29:33+00:00*
G04 #@! TF.ProjectId,stm32-debug-breakout,73746d33-322d-4646-9562-75672d627265,rev?*
G04 #@! TF.SameCoordinates,Original*
G04 #@! TF.FileFunction,Copper,L1,Top*
G04 #@! TF.FilePolarity,Positive*
%FSLAX46Y46*%
G04 Gerber Fmt 4.6, Leading zero omitted, Abs format (unit mm)*
G04 Created by KiCad (PCBNEW 5.1.10) date 2021-10-24 19:29:33*
%MOMM*%
%LPD*%
G01*
G04 APERTURE LIST*
G04 #@! TA.AperFunction,SMDPad,CuDef*
%ADD10R,1.400000X1.600000*%
G04 #@! TD*
G04 #@! TA.AperFunction,ComponentPad*
%ADD11C,1.700000*%
G04 #@! TD*
G04 #@! TA.AperFunction,ComponentPad*
%ADD12O,1.700000X1.700000*%
G04 #@! TD*
G04 #@! TA.AperFunction,ComponentPad*
%ADD13R,1.700000X1.700000*%
G04 #@! TD*
G04 #@! TA.AperFunction,Conductor*
%ADD14C,0.250000*%
G04 #@! TD*
G04 #@! TA.AperFunction,Conductor*
%ADD15C,0.254000*%
G04 #@! TD*
G04 #@! TA.AperFunction,Conductor*
%ADD16C,0.100000*%
G04 #@! TD*
G04 APERTURE END LIST*
D10*
G04 #@! TO.P,SW1,2*
G04 #@! TO.N,/NRST*
X149570000Y-92900000D03*
G04 #@! TO.P,SW1,1*
X149570000Y-84900000D03*
G04 #@! TO.P,SW1,4*
G04 #@! TO.N,Net-(R1-Pad1)*
X145070000Y-92900000D03*
G04 #@! TO.P,SW1,3*
X145070000Y-84900000D03*
G04 #@! TD*
G04 #@! TO.P,R1,2*
G04 #@! TO.N,GND*
G04 #@! TA.AperFunction,SMDPad,CuDef*
G36*
G01*
X140519999Y-89657500D02*
X141420001Y-89657500D01*
G75*
G02*
X141670000Y-89907499I0J-249999D01*
G01*
X141670000Y-90432501D01*
G75*
G02*
X141420001Y-90682500I-249999J0D01*
G01*
X140519999Y-90682500D01*
G75*
G02*
X140270000Y-90432501I0J249999D01*
G01*
X140270000Y-89907499D01*
G75*
G02*
X140519999Y-89657500I249999J0D01*
G01*
G37*
G04 #@! TD.AperFunction*
G04 #@! TO.P,R1,1*
G04 #@! TO.N,Net-(R1-Pad1)*
G04 #@! TA.AperFunction,SMDPad,CuDef*
G36*
G01*
X140519999Y-87832500D02*
X141420001Y-87832500D01*
G75*
G02*
X141670000Y-88082499I0J-249999D01*
G01*
X141670000Y-88607501D01*
G75*
G02*
X141420001Y-88857500I-249999J0D01*
G01*
X140519999Y-88857500D01*
G75*
G02*
X140270000Y-88607501I0J249999D01*
G01*
X140270000Y-88082499D01*
G75*
G02*
X140519999Y-87832500I249999J0D01*
G01*
G37*
G04 #@! TD.AperFunction*
G04 #@! TD*
D11*
G04 #@! TO.P,J3,8*
G04 #@! TO.N,/RX*
X143510000Y-105410000D03*
G04 #@! TO.P,J3,6*
G04 #@! TO.N,/SWO*
X143510000Y-107950000D03*
G04 #@! TO.P,J3,4*
G04 #@! TO.N,/SWCLK*
X143510000Y-110490000D03*
G04 #@! TO.P,J3,2*
G04 #@! TO.N,/SWDIO*
X143510000Y-113030000D03*
G04 #@! TO.P,J3,7*
G04 #@! TO.N,/TX*
X146050000Y-105410000D03*
G04 #@! TO.P,J3,5*
G04 #@! TO.N,/NRST*
X146050000Y-107950000D03*
G04 #@! TO.P,J3,3*
G04 #@! TO.N,GND*
X146050000Y-110490000D03*
G04 #@! TO.P,J3,1*
G04 #@! TO.N,VCC*
G04 #@! TA.AperFunction,ComponentPad*
G36*
G01*
X146900000Y-112430000D02*
X146900000Y-113630000D01*
G75*
G02*
X146650000Y-113880000I-250000J0D01*
G01*
X145450000Y-113880000D01*
G75*
G02*
X145200000Y-113630000I0J250000D01*
G01*
X145200000Y-112430000D01*
G75*
G02*
X145450000Y-112180000I250000J0D01*
G01*
X146650000Y-112180000D01*
G75*
G02*
X146900000Y-112430000I0J-250000D01*
G01*
G37*
G04 #@! TD.AperFunction*
G04 #@! TD*
D12*
G04 #@! TO.P,J2,20*
G04 #@! TO.N,GND*
X154940000Y-93980000D03*
G04 #@! TO.P,J2,19*
G04 #@! TO.N,Net-(J2-Pad19)*
X157480000Y-93980000D03*
G04 #@! TO.P,J2,18*
G04 #@! TO.N,GND*
X154940000Y-96520000D03*
G04 #@! TO.P,J2,17*
G04 #@! TO.N,Net-(J2-Pad17)*
X157480000Y-96520000D03*
G04 #@! TO.P,J2,16*
G04 #@! TO.N,GND*
X154940000Y-99060000D03*
G04 #@! TO.P,J2,15*
G04 #@! TO.N,/NRST*
X157480000Y-99060000D03*
G04 #@! TO.P,J2,14*
G04 #@! TO.N,GND*
X154940000Y-101600000D03*
G04 #@! TO.P,J2,13*
G04 #@! TO.N,/SWO*
X157480000Y-101600000D03*
G04 #@! TO.P,J2,12*
G04 #@! TO.N,GND*
X154940000Y-104140000D03*
G04 #@! TO.P,J2,11*
G04 #@! TO.N,Net-(J2-Pad11)*
X157480000Y-104140000D03*
G04 #@! TO.P,J2,10*
G04 #@! TO.N,GND*
X154940000Y-106680000D03*
G04 #@! TO.P,J2,9*
G04 #@! TO.N,/SWCLK*
X157480000Y-106680000D03*
G04 #@! TO.P,J2,8*
G04 #@! TO.N,GND*
X154940000Y-109220000D03*
G04 #@! TO.P,J2,7*
G04 #@! TO.N,/SWDIO*
X157480000Y-109220000D03*
G04 #@! TO.P,J2,6*
G04 #@! TO.N,GND*
X154940000Y-111760000D03*
G04 #@! TO.P,J2,5*
G04 #@! TO.N,Net-(J2-Pad5)*
X157480000Y-111760000D03*
G04 #@! TO.P,J2,4*
G04 #@! TO.N,GND*
X154940000Y-114300000D03*
G04 #@! TO.P,J2,3*
G04 #@! TO.N,Net-(J2-Pad3)*
X157480000Y-114300000D03*
G04 #@! TO.P,J2,2*
G04 #@! TO.N,VCC*
X154940000Y-116840000D03*
D13*
G04 #@! TO.P,J2,1*
X157480000Y-116840000D03*
G04 #@! TD*
D12*
G04 #@! TO.P,J1,6*
G04 #@! TO.N,Net-(J1-Pad6)*
X154940000Y-87630000D03*
G04 #@! TO.P,J1,5*
G04 #@! TO.N,/RX*
X154940000Y-85090000D03*
G04 #@! TO.P,J1,4*
G04 #@! TO.N,/TX*
X154940000Y-82550000D03*
G04 #@! TO.P,J1,3*
G04 #@! TO.N,Net-(J1-Pad3)*
X154940000Y-80010000D03*
G04 #@! TO.P,J1,2*
G04 #@! TO.N,Net-(J1-Pad2)*
X154940000Y-77470000D03*
D13*
G04 #@! TO.P,J1,1*
G04 #@! TO.N,GND*
X154940000Y-74930000D03*
G04 #@! TD*
D14*
G04 #@! TO.N,/TX*
X154305000Y-81915000D02*
X154940000Y-82550000D01*
X149225000Y-81915000D02*
X154305000Y-81915000D01*
X147955000Y-83185000D02*
X149225000Y-81915000D01*
X147955000Y-96520000D02*
X147955000Y-83185000D01*
X146050000Y-98425000D02*
X147955000Y-96520000D01*
X146050000Y-105410000D02*
X146050000Y-98425000D01*
G04 #@! TO.N,/RX*
X148590000Y-80645000D02*
X153035000Y-80645000D01*
X146685000Y-95885000D02*
X146685000Y-82550000D01*
X143510000Y-99060000D02*
X146685000Y-95885000D01*
X146685000Y-82550000D02*
X148590000Y-80645000D01*
X143510000Y-105410000D02*
X143510000Y-99060000D01*
X153035000Y-80645000D02*
X153670000Y-81280000D01*
X153670000Y-81280000D02*
X156210000Y-81280000D01*
X156210000Y-81280000D02*
X156845000Y-81915000D01*
X156845000Y-81915000D02*
X156845000Y-84455000D01*
X156210000Y-85090000D02*
X154940000Y-85090000D01*
X156845000Y-84455000D02*
X156210000Y-85090000D01*
G04 #@! TO.N,/NRST*
X146050000Y-107950000D02*
X151130000Y-107950000D01*
X151130000Y-107950000D02*
X153670000Y-105410000D01*
X157949002Y-105410000D02*
X158750000Y-104609002D01*
X153670000Y-105410000D02*
X157949002Y-105410000D01*
X158750000Y-100330000D02*
X157480000Y-99060000D01*
X158750000Y-104609002D02*
X158750000Y-100330000D01*
X149570000Y-96230000D02*
X149570000Y-92900000D01*
X151130000Y-97790000D02*
X149570000Y-96230000D01*
X156210000Y-97790000D02*
X151130000Y-97790000D01*
X157480000Y-99060000D02*
X156210000Y-97790000D01*
X149570000Y-92900000D02*
X149570000Y-84900000D01*
G04 #@! TO.N,/SWO*
X144685001Y-106774999D02*
X143510000Y-107950000D01*
X149765001Y-106774999D02*
X144685001Y-106774999D01*
X153670000Y-102870000D02*
X149765001Y-106774999D01*
X156210000Y-102870000D02*
X153670000Y-102870000D01*
X157480000Y-101600000D02*
X156210000Y-102870000D01*
G04 #@! TO.N,/SWCLK*
X144685001Y-109314999D02*
X152305001Y-109314999D01*
X143510000Y-110490000D02*
X144685001Y-109314999D01*
X152305001Y-109314999D02*
X153670000Y-107950000D01*
X156210000Y-107950000D02*
X157480000Y-106680000D01*
X153670000Y-107950000D02*
X156210000Y-107950000D01*
G04 #@! TO.N,/SWDIO*
X144685010Y-111854990D02*
X152305010Y-111854990D01*
X143510000Y-113030000D02*
X144685010Y-111854990D01*
X152305010Y-111854990D02*
X153670000Y-110490000D01*
X156210000Y-110490000D02*
X157480000Y-109220000D01*
X153670000Y-110490000D02*
X156210000Y-110490000D01*
G04 #@! TO.N,VCC*
X149860000Y-116840000D02*
X146050000Y-113030000D01*
X157480000Y-116840000D02*
X149860000Y-116840000D01*
G04 #@! TO.N,Net-(R1-Pad1)*
X144415000Y-84900000D02*
X140970000Y-88345000D01*
X145070000Y-84900000D02*
X144415000Y-84900000D01*
X145070000Y-92900000D02*
X145070000Y-84900000D01*
G04 #@! TD*
D15*
G04 #@! TO.N,GND*
X159258000Y-99763198D02*
X158921210Y-99426408D01*
X158965000Y-99206260D01*
X158965000Y-98913740D01*
X158907932Y-98626842D01*
X158795990Y-98356589D01*
X158633475Y-98113368D01*
X158426632Y-97906525D01*
X158252240Y-97790000D01*
X158426632Y-97673475D01*
X158633475Y-97466632D01*
X158795990Y-97223411D01*
X158907932Y-96953158D01*
X158965000Y-96666260D01*
X158965000Y-96373740D01*
X158907932Y-96086842D01*
X158795990Y-95816589D01*
X158633475Y-95573368D01*
X158426632Y-95366525D01*
X158252240Y-95250000D01*
X158426632Y-95133475D01*
X158633475Y-94926632D01*
X158795990Y-94683411D01*
X158907932Y-94413158D01*
X158965000Y-94126260D01*
X158965000Y-93833740D01*
X158907932Y-93546842D01*
X158795990Y-93276589D01*
X158633475Y-93033368D01*
X158426632Y-92826525D01*
X158183411Y-92664010D01*
X157913158Y-92552068D01*
X157626260Y-92495000D01*
X157333740Y-92495000D01*
X157046842Y-92552068D01*
X156776589Y-92664010D01*
X156533368Y-92826525D01*
X156326525Y-93033368D01*
X156208900Y-93209406D01*
X156037588Y-92979731D01*
X155821355Y-92784822D01*
X155571252Y-92635843D01*
X155296891Y-92538519D01*
X155067000Y-92659186D01*
X155067000Y-93853000D01*
X155087000Y-93853000D01*
X155087000Y-94107000D01*
X155067000Y-94107000D01*
X155067000Y-96393000D01*
X155087000Y-96393000D01*
X155087000Y-96647000D01*
X155067000Y-96647000D01*
X155067000Y-96667000D01*
X154813000Y-96667000D01*
X154813000Y-96647000D01*
X153619845Y-96647000D01*
X153498524Y-96876890D01*
X153543175Y-97024099D01*
X153545986Y-97030000D01*
X151444802Y-97030000D01*
X150330000Y-95915199D01*
X150330000Y-94336890D01*
X153498524Y-94336890D01*
X153543175Y-94484099D01*
X153668359Y-94746920D01*
X153842412Y-94980269D01*
X154058645Y-95175178D01*
X154184255Y-95250000D01*
X154058645Y-95324822D01*
X153842412Y-95519731D01*
X153668359Y-95753080D01*
X153543175Y-96015901D01*
X153498524Y-96163110D01*
X153619845Y-96393000D01*
X154813000Y-96393000D01*
X154813000Y-94107000D01*
X153619845Y-94107000D01*
X153498524Y-94336890D01*
X150330000Y-94336890D01*
X150330000Y-94332163D01*
X150394482Y-94325812D01*
X150514180Y-94289502D01*
X150624494Y-94230537D01*
X150721185Y-94151185D01*
X150800537Y-94054494D01*
X150859502Y-93944180D01*
X150895812Y-93824482D01*
X150908072Y-93700000D01*
X150908072Y-93623110D01*
X153498524Y-93623110D01*
X153619845Y-93853000D01*
X154813000Y-93853000D01*
X154813000Y-92659186D01*
X154583109Y-92538519D01*
X154308748Y-92635843D01*
X154058645Y-92784822D01*
X153842412Y-92979731D01*
X153668359Y-93213080D01*
X153543175Y-93475901D01*
X153498524Y-93623110D01*
X150908072Y-93623110D01*
X150908072Y-92100000D01*
X150895812Y-91975518D01*
X150859502Y-91855820D01*
X150800537Y-91745506D01*
X150721185Y-91648815D01*
X150624494Y-91569463D01*
X150514180Y-91510498D01*
X150394482Y-91474188D01*
X150330000Y-91467837D01*
X150330000Y-86332163D01*
X150394482Y-86325812D01*
X150514180Y-86289502D01*
X150624494Y-86230537D01*
X150721185Y-86151185D01*
X150800537Y-86054494D01*
X150859502Y-85944180D01*
X150895812Y-85824482D01*
X150908072Y-85700000D01*
X150908072Y-84100000D01*
X150895812Y-83975518D01*
X150859502Y-83855820D01*
X150800537Y-83745506D01*
X150721185Y-83648815D01*
X150624494Y-83569463D01*
X150514180Y-83510498D01*
X150394482Y-83474188D01*
X150270000Y-83461928D01*
X148870000Y-83461928D01*
X148745518Y-83474188D01*
X148738477Y-83476324D01*
X149539802Y-82675000D01*
X153455000Y-82675000D01*
X153455000Y-82696260D01*
X153512068Y-82983158D01*
X153624010Y-83253411D01*
X153786525Y-83496632D01*
X153993368Y-83703475D01*
X154167760Y-83820000D01*
X153993368Y-83936525D01*
X153786525Y-84143368D01*
X153624010Y-84386589D01*
X153512068Y-84656842D01*
X153455000Y-84943740D01*
X153455000Y-85236260D01*
X153512068Y-85523158D01*
X153624010Y-85793411D01*
X153786525Y-86036632D01*
X153993368Y-86243475D01*
X154167760Y-86360000D01*
X153993368Y-86476525D01*
X153786525Y-86683368D01*
X153624010Y-86926589D01*
X153512068Y-87196842D01*
X153455000Y-87483740D01*
X153455000Y-87776260D01*
X153512068Y-88063158D01*
X153624010Y-88333411D01*
X153786525Y-88576632D01*
X153993368Y-88783475D01*
X154236589Y-88945990D01*
X154506842Y-89057932D01*
X154793740Y-89115000D01*
X155086260Y-89115000D01*
X155373158Y-89057932D01*
X155643411Y-88945990D01*
X155886632Y-88783475D01*
X156093475Y-88576632D01*
X156255990Y-88333411D01*
X156367932Y-88063158D01*
X156425000Y-87776260D01*
X156425000Y-87483740D01*
X156367932Y-87196842D01*
X156255990Y-86926589D01*
X156093475Y-86683368D01*
X155886632Y-86476525D01*
X155712240Y-86360000D01*
X155886632Y-86243475D01*
X156093475Y-86036632D01*
X156216125Y-85853073D01*
X156247322Y-85850000D01*
X156247333Y-85850000D01*
X156358986Y-85839003D01*
X156502247Y-85795546D01*
X156634276Y-85724974D01*
X156750001Y-85630001D01*
X156773803Y-85600998D01*
X157356002Y-85018800D01*
X157385001Y-84995001D01*
X157479974Y-84879276D01*
X157550546Y-84747247D01*
X157594003Y-84603986D01*
X157605000Y-84492333D01*
X157608677Y-84455000D01*
X157605000Y-84417667D01*
X157605000Y-81952333D01*
X157608677Y-81915000D01*
X157594003Y-81766014D01*
X157550546Y-81622753D01*
X157479974Y-81490724D01*
X157408799Y-81403997D01*
X157385001Y-81374999D01*
X157356003Y-81351201D01*
X156773803Y-80769002D01*
X156750001Y-80739999D01*
X156634276Y-80645026D01*
X156502247Y-80574454D01*
X156358986Y-80530997D01*
X156332624Y-80528400D01*
X156367932Y-80443158D01*
X156425000Y-80156260D01*
X156425000Y-79863740D01*
X156367932Y-79576842D01*
X156255990Y-79306589D01*
X156093475Y-79063368D01*
X155886632Y-78856525D01*
X155712240Y-78740000D01*
X155886632Y-78623475D01*
X156093475Y-78416632D01*
X156255990Y-78173411D01*
X156367932Y-77903158D01*
X156425000Y-77616260D01*
X156425000Y-77323740D01*
X156367932Y-77036842D01*
X156255990Y-76766589D01*
X156093475Y-76523368D01*
X155961620Y-76391513D01*
X156034180Y-76369502D01*
X156144494Y-76310537D01*
X156241185Y-76231185D01*
X156320537Y-76134494D01*
X156379502Y-76024180D01*
X156415812Y-75904482D01*
X156428072Y-75780000D01*
X156425000Y-75215750D01*
X156266250Y-75057000D01*
X155067000Y-75057000D01*
X155067000Y-75077000D01*
X154813000Y-75077000D01*
X154813000Y-75057000D01*
X153613750Y-75057000D01*
X153455000Y-75215750D01*
X153451928Y-75780000D01*
X153464188Y-75904482D01*
X153500498Y-76024180D01*
X153559463Y-76134494D01*
X153638815Y-76231185D01*
X153735506Y-76310537D01*
X153845820Y-76369502D01*
X153918380Y-76391513D01*
X153786525Y-76523368D01*
X153624010Y-76766589D01*
X153512068Y-77036842D01*
X153455000Y-77323740D01*
X153455000Y-77616260D01*
X153512068Y-77903158D01*
X153624010Y-78173411D01*
X153786525Y-78416632D01*
X153993368Y-78623475D01*
X154167760Y-78740000D01*
X153993368Y-78856525D01*
X153786525Y-79063368D01*
X153624010Y-79306589D01*
X153512068Y-79576842D01*
X153455000Y-79863740D01*
X153455000Y-80007740D01*
X153327247Y-79939454D01*
X153183986Y-79895997D01*
X153072333Y-79885000D01*
X153072322Y-79885000D01*
X153035000Y-79881324D01*
X152997678Y-79885000D01*
X148627323Y-79885000D01*
X148590000Y-79881324D01*
X148552677Y-79885000D01*
X148552667Y-79885000D01*
X148441014Y-79895997D01*
X148297753Y-79939454D01*
X148165724Y-80010026D01*
X148049999Y-80104999D01*
X148026201Y-80133997D01*
X146173998Y-81986201D01*
X146145000Y-82009999D01*
X146121202Y-82038997D01*
X146121201Y-82038998D01*
X146050026Y-82125724D01*
X145979454Y-82257754D01*
X145954726Y-82339276D01*
X145935998Y-82401014D01*
X145930681Y-82455001D01*
X145921324Y-82550000D01*
X145925001Y-82587332D01*
X145925001Y-83483446D01*
X145894482Y-83474188D01*
X145770000Y-83461928D01*
X144370000Y-83461928D01*
X144245518Y-83474188D01*
X144125820Y-83510498D01*
X144015506Y-83569463D01*
X143918815Y-83648815D01*
X143839463Y-83745506D01*
X143780498Y-83855820D01*
X143744188Y-83975518D01*
X143731928Y-84100000D01*
X143731928Y-84508270D01*
X141045771Y-87194428D01*
X140519999Y-87194428D01*
X140346745Y-87211492D01*
X140180149Y-87262028D01*
X140026613Y-87344095D01*
X139892038Y-87454538D01*
X139781595Y-87589113D01*
X139699528Y-87742649D01*
X139648992Y-87909245D01*
X139631928Y-88082499D01*
X139631928Y-88607501D01*
X139648992Y-88780755D01*
X139699528Y-88947351D01*
X139781595Y-89100887D01*
X139848276Y-89182137D01*
X139818815Y-89206315D01*
X139739463Y-89303006D01*
X139680498Y-89413320D01*
X139644188Y-89533018D01*
X139631928Y-89657500D01*
X139635000Y-89884250D01*
X139793750Y-90043000D01*
X140843000Y-90043000D01*
X140843000Y-90023000D01*
X141097000Y-90023000D01*
X141097000Y-90043000D01*
X142146250Y-90043000D01*
X142305000Y-89884250D01*
X142308072Y-89657500D01*
X142295812Y-89533018D01*
X142259502Y-89413320D01*
X142200537Y-89303006D01*
X142121185Y-89206315D01*
X142091724Y-89182137D01*
X142158405Y-89100887D01*
X142240472Y-88947351D01*
X142291008Y-88780755D01*
X142308072Y-88607501D01*
X142308072Y-88082499D01*
X142308003Y-88081798D01*
X144109189Y-86280613D01*
X144125820Y-86289502D01*
X144245518Y-86325812D01*
X144310001Y-86332163D01*
X144310000Y-91467837D01*
X144245518Y-91474188D01*
X144125820Y-91510498D01*
X144015506Y-91569463D01*
X143918815Y-91648815D01*
X143839463Y-91745506D01*
X143780498Y-91855820D01*
X143744188Y-91975518D01*
X143731928Y-92100000D01*
X143731928Y-93700000D01*
X143744188Y-93824482D01*
X143780498Y-93944180D01*
X143839463Y-94054494D01*
X143918815Y-94151185D01*
X144015506Y-94230537D01*
X144125820Y-94289502D01*
X144245518Y-94325812D01*
X144370000Y-94338072D01*
X145770000Y-94338072D01*
X145894482Y-94325812D01*
X145925000Y-94316554D01*
X145925000Y-95570198D01*
X142998998Y-98496201D01*
X142970000Y-98519999D01*
X142946202Y-98548997D01*
X142946201Y-98548998D01*
X142875026Y-98635724D01*
X142804454Y-98767754D01*
X142779726Y-98849276D01*
X142760999Y-98911013D01*
X142760998Y-98911015D01*
X142746324Y-99060000D01*
X142750001Y-99097332D01*
X142750000Y-104131821D01*
X142563368Y-104256525D01*
X142356525Y-104463368D01*
X142194010Y-104706589D01*
X142082068Y-104976842D01*
X142025000Y-105263740D01*
X142025000Y-105556260D01*
X142082068Y-105843158D01*
X142194010Y-106113411D01*
X142356525Y-106356632D01*
X142563368Y-106563475D01*
X142737760Y-106680000D01*
X142563368Y-106796525D01*
X142356525Y-107003368D01*
X142194010Y-107246589D01*
X142082068Y-107516842D01*
X142025000Y-107803740D01*
X142025000Y-108096260D01*
X142082068Y-108383158D01*
X142194010Y-108653411D01*
X142356525Y-108896632D01*
X142563368Y-109103475D01*
X142737760Y-109220000D01*
X142563368Y-109336525D01*
X142356525Y-109543368D01*
X142194010Y-109786589D01*
X142082068Y-110056842D01*
X142025000Y-110343740D01*
X142025000Y-110636260D01*
X142082068Y-110923158D01*
X142194010Y-111193411D01*
X142356525Y-111436632D01*
X142563368Y-111643475D01*
X142737760Y-111760000D01*
X142563368Y-111876525D01*
X142356525Y-112083368D01*
X142194010Y-112326589D01*
X142082068Y-112596842D01*
X142025000Y-112883740D01*
X142025000Y-113176260D01*
X142082068Y-113463158D01*
X142194010Y-113733411D01*
X142356525Y-113976632D01*
X142563368Y-114183475D01*
X142806589Y-114345990D01*
X143076842Y-114457932D01*
X143363740Y-114515000D01*
X143656260Y-114515000D01*
X143943158Y-114457932D01*
X144213411Y-114345990D01*
X144456632Y-114183475D01*
X144643715Y-113996392D01*
X144711595Y-114123386D01*
X144822038Y-114257962D01*
X144956614Y-114368405D01*
X145110150Y-114450472D01*
X145276746Y-114501008D01*
X145450000Y-114518072D01*
X146463271Y-114518072D01*
X149296201Y-117351003D01*
X149319999Y-117380001D01*
X149435724Y-117474974D01*
X149567753Y-117545546D01*
X149711014Y-117589003D01*
X149822667Y-117600000D01*
X149822675Y-117600000D01*
X149860000Y-117603676D01*
X149897325Y-117600000D01*
X153661822Y-117600000D01*
X153786525Y-117786632D01*
X153993368Y-117993475D01*
X154236589Y-118155990D01*
X154506842Y-118267932D01*
X154793740Y-118325000D01*
X155086260Y-118325000D01*
X155373158Y-118267932D01*
X155643411Y-118155990D01*
X155886632Y-117993475D01*
X156018487Y-117861620D01*
X156040498Y-117934180D01*
X156099463Y-118044494D01*
X156178815Y-118141185D01*
X156275506Y-118220537D01*
X156385820Y-118279502D01*
X156505518Y-118315812D01*
X156630000Y-118328072D01*
X158330000Y-118328072D01*
X158454482Y-118315812D01*
X158574180Y-118279502D01*
X158684494Y-118220537D01*
X158781185Y-118141185D01*
X158860537Y-118044494D01*
X158919502Y-117934180D01*
X158955812Y-117814482D01*
X158968072Y-117690000D01*
X158968072Y-115990000D01*
X158955812Y-115865518D01*
X158919502Y-115745820D01*
X158860537Y-115635506D01*
X158781185Y-115538815D01*
X158684494Y-115459463D01*
X158574180Y-115400498D01*
X158501620Y-115378487D01*
X158633475Y-115246632D01*
X158795990Y-115003411D01*
X158907932Y-114733158D01*
X158965000Y-114446260D01*
X158965000Y-114153740D01*
X158907932Y-113866842D01*
X158795990Y-113596589D01*
X158633475Y-113353368D01*
X158426632Y-113146525D01*
X158252240Y-113030000D01*
X158426632Y-112913475D01*
X158633475Y-112706632D01*
X158795990Y-112463411D01*
X158907932Y-112193158D01*
X158965000Y-111906260D01*
X158965000Y-111613740D01*
X158907932Y-111326842D01*
X158795990Y-111056589D01*
X158633475Y-110813368D01*
X158426632Y-110606525D01*
X158252240Y-110490000D01*
X158426632Y-110373475D01*
X158633475Y-110166632D01*
X158795990Y-109923411D01*
X158907932Y-109653158D01*
X158965000Y-109366260D01*
X158965000Y-109073740D01*
X158907932Y-108786842D01*
X158795990Y-108516589D01*
X158633475Y-108273368D01*
X158426632Y-108066525D01*
X158252240Y-107950000D01*
X158426632Y-107833475D01*
X158633475Y-107626632D01*
X158795990Y-107383411D01*
X158907932Y-107113158D01*
X158965000Y-106826260D01*
X158965000Y-106533740D01*
X158907932Y-106246842D01*
X158795990Y-105976589D01*
X158660296Y-105773508D01*
X159258000Y-105175804D01*
X159258000Y-119253000D01*
X139192000Y-119253000D01*
X139192000Y-90682500D01*
X139631928Y-90682500D01*
X139644188Y-90806982D01*
X139680498Y-90926680D01*
X139739463Y-91036994D01*
X139818815Y-91133685D01*
X139915506Y-91213037D01*
X140025820Y-91272002D01*
X140145518Y-91308312D01*
X140270000Y-91320572D01*
X140684250Y-91317500D01*
X140843000Y-91158750D01*
X140843000Y-90297000D01*
X141097000Y-90297000D01*
X141097000Y-91158750D01*
X141255750Y-91317500D01*
X141670000Y-91320572D01*
X141794482Y-91308312D01*
X141914180Y-91272002D01*
X142024494Y-91213037D01*
X142121185Y-91133685D01*
X142200537Y-91036994D01*
X142259502Y-90926680D01*
X142295812Y-90806982D01*
X142308072Y-90682500D01*
X142305000Y-90455750D01*
X142146250Y-90297000D01*
X141097000Y-90297000D01*
X140843000Y-90297000D01*
X139793750Y-90297000D01*
X139635000Y-90455750D01*
X139631928Y-90682500D01*
X139192000Y-90682500D01*
X139192000Y-74080000D01*
X153451928Y-74080000D01*
X153455000Y-74644250D01*
X153613750Y-74803000D01*
X154813000Y-74803000D01*
X154813000Y-73603750D01*
X155067000Y-73603750D01*
X155067000Y-74803000D01*
X156266250Y-74803000D01*
X156425000Y-74644250D01*
X156428072Y-74080000D01*
X156415812Y-73955518D01*
X156379502Y-73835820D01*
X156320537Y-73725506D01*
X156241185Y-73628815D01*
X156144494Y-73549463D01*
X156034180Y-73490498D01*
X155914482Y-73454188D01*
X155790000Y-73441928D01*
X155225750Y-73445000D01*
X155067000Y-73603750D01*
X154813000Y-73603750D01*
X154654250Y-73445000D01*
X154090000Y-73441928D01*
X153965518Y-73454188D01*
X153845820Y-73490498D01*
X153735506Y-73549463D01*
X153638815Y-73628815D01*
X153559463Y-73725506D01*
X153500498Y-73835820D01*
X153464188Y-73955518D01*
X153451928Y-74080000D01*
X139192000Y-74080000D01*
X139192000Y-72517000D01*
X159258000Y-72517000D01*
X159258000Y-99763198D01*
G04 #@! TA.AperFunction,Conductor*
D16*
G36*
X159258000Y-99763198D02*
G01*
X158921210Y-99426408D01*
X158965000Y-99206260D01*
X158965000Y-98913740D01*
X158907932Y-98626842D01*
X158795990Y-98356589D01*
X158633475Y-98113368D01*
X158426632Y-97906525D01*
X158252240Y-97790000D01*
X158426632Y-97673475D01*
X158633475Y-97466632D01*
X158795990Y-97223411D01*
X158907932Y-96953158D01*
X158965000Y-96666260D01*
X158965000Y-96373740D01*
X158907932Y-96086842D01*
X158795990Y-95816589D01*
X158633475Y-95573368D01*
X158426632Y-95366525D01*
X158252240Y-95250000D01*
X158426632Y-95133475D01*
X158633475Y-94926632D01*
X158795990Y-94683411D01*
X158907932Y-94413158D01*
X158965000Y-94126260D01*
X158965000Y-93833740D01*
X158907932Y-93546842D01*
X158795990Y-93276589D01*
X158633475Y-93033368D01*
X158426632Y-92826525D01*
X158183411Y-92664010D01*
X157913158Y-92552068D01*
X157626260Y-92495000D01*
X157333740Y-92495000D01*
X157046842Y-92552068D01*
X156776589Y-92664010D01*
X156533368Y-92826525D01*
X156326525Y-93033368D01*
X156208900Y-93209406D01*
X156037588Y-92979731D01*
X155821355Y-92784822D01*
X155571252Y-92635843D01*
X155296891Y-92538519D01*
X155067000Y-92659186D01*
X155067000Y-93853000D01*
X155087000Y-93853000D01*
X155087000Y-94107000D01*
X155067000Y-94107000D01*
X155067000Y-96393000D01*
X155087000Y-96393000D01*
X155087000Y-96647000D01*
X155067000Y-96647000D01*
X155067000Y-96667000D01*
X154813000Y-96667000D01*
X154813000Y-96647000D01*
X153619845Y-96647000D01*
X153498524Y-96876890D01*
X153543175Y-97024099D01*
X153545986Y-97030000D01*
X151444802Y-97030000D01*
X150330000Y-95915199D01*
X150330000Y-94336890D01*
X153498524Y-94336890D01*
X153543175Y-94484099D01*
X153668359Y-94746920D01*
X153842412Y-94980269D01*
X154058645Y-95175178D01*
X154184255Y-95250000D01*
X154058645Y-95324822D01*
X153842412Y-95519731D01*
X153668359Y-95753080D01*
X153543175Y-96015901D01*
X153498524Y-96163110D01*
X153619845Y-96393000D01*
X154813000Y-96393000D01*
X154813000Y-94107000D01*
X153619845Y-94107000D01*
X153498524Y-94336890D01*
X150330000Y-94336890D01*
X150330000Y-94332163D01*
X150394482Y-94325812D01*
X150514180Y-94289502D01*
X150624494Y-94230537D01*
X150721185Y-94151185D01*
X150800537Y-94054494D01*
X150859502Y-93944180D01*
X150895812Y-93824482D01*
X150908072Y-93700000D01*
X150908072Y-93623110D01*
X153498524Y-93623110D01*
X153619845Y-93853000D01*
X154813000Y-93853000D01*
X154813000Y-92659186D01*
X154583109Y-92538519D01*
X154308748Y-92635843D01*
X154058645Y-92784822D01*
X153842412Y-92979731D01*
X153668359Y-93213080D01*
X153543175Y-93475901D01*
X153498524Y-93623110D01*
X150908072Y-93623110D01*
X150908072Y-92100000D01*
X150895812Y-91975518D01*
X150859502Y-91855820D01*
X150800537Y-91745506D01*
X150721185Y-91648815D01*
X150624494Y-91569463D01*
X150514180Y-91510498D01*
X150394482Y-91474188D01*
X150330000Y-91467837D01*
X150330000Y-86332163D01*
X150394482Y-86325812D01*
X150514180Y-86289502D01*
X150624494Y-86230537D01*
X150721185Y-86151185D01*
X150800537Y-86054494D01*
X150859502Y-85944180D01*
X150895812Y-85824482D01*
X150908072Y-85700000D01*
X150908072Y-84100000D01*
X150895812Y-83975518D01*
X150859502Y-83855820D01*
X150800537Y-83745506D01*
X150721185Y-83648815D01*
X150624494Y-83569463D01*
X150514180Y-83510498D01*
X150394482Y-83474188D01*
X150270000Y-83461928D01*
X148870000Y-83461928D01*
X148745518Y-83474188D01*
X148738477Y-83476324D01*
X149539802Y-82675000D01*
X153455000Y-82675000D01*
X153455000Y-82696260D01*
X153512068Y-82983158D01*
X153624010Y-83253411D01*
X153786525Y-83496632D01*
X153993368Y-83703475D01*
X154167760Y-83820000D01*
X153993368Y-83936525D01*
X153786525Y-84143368D01*
X153624010Y-84386589D01*
X153512068Y-84656842D01*
X153455000Y-84943740D01*
X153455000Y-85236260D01*
X153512068Y-85523158D01*
X153624010Y-85793411D01*
X153786525Y-86036632D01*
X153993368Y-86243475D01*
X154167760Y-86360000D01*
X153993368Y-86476525D01*
X153786525Y-86683368D01*
X153624010Y-86926589D01*
X153512068Y-87196842D01*
X153455000Y-87483740D01*
X153455000Y-87776260D01*
X153512068Y-88063158D01*
X153624010Y-88333411D01*
X153786525Y-88576632D01*
X153993368Y-88783475D01*
X154236589Y-88945990D01*
X154506842Y-89057932D01*
X154793740Y-89115000D01*
X155086260Y-89115000D01*
X155373158Y-89057932D01*
X155643411Y-88945990D01*
X155886632Y-88783475D01*
X156093475Y-88576632D01*
X156255990Y-88333411D01*
X156367932Y-88063158D01*
X156425000Y-87776260D01*
X156425000Y-87483740D01*
X156367932Y-87196842D01*
X156255990Y-86926589D01*
X156093475Y-86683368D01*
X155886632Y-86476525D01*
X155712240Y-86360000D01*
X155886632Y-86243475D01*
X156093475Y-86036632D01*
X156216125Y-85853073D01*
X156247322Y-85850000D01*
X156247333Y-85850000D01*
X156358986Y-85839003D01*
X156502247Y-85795546D01*
X156634276Y-85724974D01*
X156750001Y-85630001D01*
X156773803Y-85600998D01*
X157356002Y-85018800D01*
X157385001Y-84995001D01*
X157479974Y-84879276D01*
X157550546Y-84747247D01*
X157594003Y-84603986D01*
X157605000Y-84492333D01*
X157608677Y-84455000D01*
X157605000Y-84417667D01*
X157605000Y-81952333D01*
X157608677Y-81915000D01*
X157594003Y-81766014D01*
X157550546Y-81622753D01*
X157479974Y-81490724D01*
X157408799Y-81403997D01*
X157385001Y-81374999D01*
X157356003Y-81351201D01*
X156773803Y-80769002D01*
X156750001Y-80739999D01*
X156634276Y-80645026D01*
X156502247Y-80574454D01*
X156358986Y-80530997D01*
X156332624Y-80528400D01*
X156367932Y-80443158D01*
X156425000Y-80156260D01*
X156425000Y-79863740D01*
X156367932Y-79576842D01*
X156255990Y-79306589D01*
X156093475Y-79063368D01*
X155886632Y-78856525D01*
X155712240Y-78740000D01*
X155886632Y-78623475D01*
X156093475Y-78416632D01*
X156255990Y-78173411D01*
X156367932Y-77903158D01*
X156425000Y-77616260D01*
X156425000Y-77323740D01*
X156367932Y-77036842D01*
X156255990Y-76766589D01*
X156093475Y-76523368D01*
X155961620Y-76391513D01*
X156034180Y-76369502D01*
X156144494Y-76310537D01*
X156241185Y-76231185D01*
X156320537Y-76134494D01*
X156379502Y-76024180D01*
X156415812Y-75904482D01*
X156428072Y-75780000D01*
X156425000Y-75215750D01*
X156266250Y-75057000D01*
X155067000Y-75057000D01*
X155067000Y-75077000D01*
X154813000Y-75077000D01*
X154813000Y-75057000D01*
X153613750Y-75057000D01*
X153455000Y-75215750D01*
X153451928Y-75780000D01*
X153464188Y-75904482D01*
X153500498Y-76024180D01*
X153559463Y-76134494D01*
X153638815Y-76231185D01*
X153735506Y-76310537D01*
X153845820Y-76369502D01*
X153918380Y-76391513D01*
X153786525Y-76523368D01*
X153624010Y-76766589D01*
X153512068Y-77036842D01*
X153455000Y-77323740D01*
X153455000Y-77616260D01*
X153512068Y-77903158D01*
X153624010Y-78173411D01*
X153786525Y-78416632D01*
X153993368Y-78623475D01*
X154167760Y-78740000D01*
X153993368Y-78856525D01*
X153786525Y-79063368D01*
X153624010Y-79306589D01*
X153512068Y-79576842D01*
X153455000Y-79863740D01*
X153455000Y-80007740D01*
X153327247Y-79939454D01*
X153183986Y-79895997D01*
X153072333Y-79885000D01*
X153072322Y-79885000D01*
X153035000Y-79881324D01*
X152997678Y-79885000D01*
X148627323Y-79885000D01*
X148590000Y-79881324D01*
X148552677Y-79885000D01*
X148552667Y-79885000D01*
X148441014Y-79895997D01*
X148297753Y-79939454D01*
X148165724Y-80010026D01*
X148049999Y-80104999D01*
X148026201Y-80133997D01*
X146173998Y-81986201D01*
X146145000Y-82009999D01*
X146121202Y-82038997D01*
X146121201Y-82038998D01*
X146050026Y-82125724D01*
X145979454Y-82257754D01*
X145954726Y-82339276D01*
X145935998Y-82401014D01*
X145930681Y-82455001D01*
X145921324Y-82550000D01*
X145925001Y-82587332D01*
X145925001Y-83483446D01*
X145894482Y-83474188D01*
X145770000Y-83461928D01*
X144370000Y-83461928D01*
X144245518Y-83474188D01*
X144125820Y-83510498D01*
X144015506Y-83569463D01*
X143918815Y-83648815D01*
X143839463Y-83745506D01*
X143780498Y-83855820D01*
X143744188Y-83975518D01*
X143731928Y-84100000D01*
X143731928Y-84508270D01*
X141045771Y-87194428D01*
X140519999Y-87194428D01*
X140346745Y-87211492D01*
X140180149Y-87262028D01*
X140026613Y-87344095D01*
X139892038Y-87454538D01*
X139781595Y-87589113D01*
X139699528Y-87742649D01*
X139648992Y-87909245D01*
X139631928Y-88082499D01*
X139631928Y-88607501D01*
X139648992Y-88780755D01*
X139699528Y-88947351D01*
X139781595Y-89100887D01*
X139848276Y-89182137D01*
X139818815Y-89206315D01*
X139739463Y-89303006D01*
X139680498Y-89413320D01*
X139644188Y-89533018D01*
X139631928Y-89657500D01*
X139635000Y-89884250D01*
X139793750Y-90043000D01*
X140843000Y-90043000D01*
X140843000Y-90023000D01*
X141097000Y-90023000D01*
X141097000Y-90043000D01*
X142146250Y-90043000D01*
X142305000Y-89884250D01*
X142308072Y-89657500D01*
X142295812Y-89533018D01*
X142259502Y-89413320D01*
X142200537Y-89303006D01*
X142121185Y-89206315D01*
X142091724Y-89182137D01*
X142158405Y-89100887D01*
X142240472Y-88947351D01*
X142291008Y-88780755D01*
X142308072Y-88607501D01*
X142308072Y-88082499D01*
X142308003Y-88081798D01*
X144109189Y-86280613D01*
X144125820Y-86289502D01*
X144245518Y-86325812D01*
X144310001Y-86332163D01*
X144310000Y-91467837D01*
X144245518Y-91474188D01*
X144125820Y-91510498D01*
X144015506Y-91569463D01*
X143918815Y-91648815D01*
X143839463Y-91745506D01*
X143780498Y-91855820D01*
X143744188Y-91975518D01*
X143731928Y-92100000D01*
X143731928Y-93700000D01*
X143744188Y-93824482D01*
X143780498Y-93944180D01*
X143839463Y-94054494D01*
X143918815Y-94151185D01*
X144015506Y-94230537D01*
X144125820Y-94289502D01*
X144245518Y-94325812D01*
X144370000Y-94338072D01*
X145770000Y-94338072D01*
X145894482Y-94325812D01*
X145925000Y-94316554D01*
X145925000Y-95570198D01*
X142998998Y-98496201D01*
X142970000Y-98519999D01*
X142946202Y-98548997D01*
X142946201Y-98548998D01*
X142875026Y-98635724D01*
X142804454Y-98767754D01*
X142779726Y-98849276D01*
X142760999Y-98911013D01*
X142760998Y-98911015D01*
X142746324Y-99060000D01*
X142750001Y-99097332D01*
X142750000Y-104131821D01*
X142563368Y-104256525D01*
X142356525Y-104463368D01*
X142194010Y-104706589D01*
X142082068Y-104976842D01*
X142025000Y-105263740D01*
X142025000Y-105556260D01*
X142082068Y-105843158D01*
X142194010Y-106113411D01*
X142356525Y-106356632D01*
X142563368Y-106563475D01*
X142737760Y-106680000D01*
X142563368Y-106796525D01*
X142356525Y-107003368D01*
X142194010Y-107246589D01*
X142082068Y-107516842D01*
X142025000Y-107803740D01*
X142025000Y-108096260D01*
X142082068Y-108383158D01*
X142194010Y-108653411D01*
X142356525Y-108896632D01*
X142563368Y-109103475D01*
X142737760Y-109220000D01*
X142563368Y-109336525D01*
X142356525Y-109543368D01*
X142194010Y-109786589D01*
X142082068Y-110056842D01*
X142025000Y-110343740D01*
X142025000Y-110636260D01*
X142082068Y-110923158D01*
X142194010Y-111193411D01*
X142356525Y-111436632D01*
X142563368Y-111643475D01*
X142737760Y-111760000D01*
X142563368Y-111876525D01*
X142356525Y-112083368D01*
X142194010Y-112326589D01*
X142082068Y-112596842D01*
X142025000Y-112883740D01*
X142025000Y-113176260D01*
X142082068Y-113463158D01*
X142194010Y-113733411D01*
X142356525Y-113976632D01*
X142563368Y-114183475D01*
X142806589Y-114345990D01*
X143076842Y-114457932D01*
X143363740Y-114515000D01*
X143656260Y-114515000D01*
X143943158Y-114457932D01*
X144213411Y-114345990D01*
X144456632Y-114183475D01*
X144643715Y-113996392D01*
X144711595Y-114123386D01*
X144822038Y-114257962D01*
X144956614Y-114368405D01*
X145110150Y-114450472D01*
X145276746Y-114501008D01*
X145450000Y-114518072D01*
X146463271Y-114518072D01*
X149296201Y-117351003D01*
X149319999Y-117380001D01*
X149435724Y-117474974D01*
X149567753Y-117545546D01*
X149711014Y-117589003D01*
X149822667Y-117600000D01*
X149822675Y-117600000D01*
X149860000Y-117603676D01*
X149897325Y-117600000D01*
X153661822Y-117600000D01*
X153786525Y-117786632D01*
X153993368Y-117993475D01*
X154236589Y-118155990D01*
X154506842Y-118267932D01*
X154793740Y-118325000D01*
X155086260Y-118325000D01*
X155373158Y-118267932D01*
X155643411Y-118155990D01*
X155886632Y-117993475D01*
X156018487Y-117861620D01*
X156040498Y-117934180D01*
X156099463Y-118044494D01*
X156178815Y-118141185D01*
X156275506Y-118220537D01*
X156385820Y-118279502D01*
X156505518Y-118315812D01*
X156630000Y-118328072D01*
X158330000Y-118328072D01*
X158454482Y-118315812D01*
X158574180Y-118279502D01*
X158684494Y-118220537D01*
X158781185Y-118141185D01*
X158860537Y-118044494D01*
X158919502Y-117934180D01*
X158955812Y-117814482D01*
X158968072Y-117690000D01*
X158968072Y-115990000D01*
X158955812Y-115865518D01*
X158919502Y-115745820D01*
X158860537Y-115635506D01*
X158781185Y-115538815D01*
X158684494Y-115459463D01*
X158574180Y-115400498D01*
X158501620Y-115378487D01*
X158633475Y-115246632D01*
X158795990Y-115003411D01*
X158907932Y-114733158D01*
X158965000Y-114446260D01*
X158965000Y-114153740D01*
X158907932Y-113866842D01*
X158795990Y-113596589D01*
X158633475Y-113353368D01*
X158426632Y-113146525D01*
X158252240Y-113030000D01*
X158426632Y-112913475D01*
X158633475Y-112706632D01*
X158795990Y-112463411D01*
X158907932Y-112193158D01*
X158965000Y-111906260D01*
X158965000Y-111613740D01*
X158907932Y-111326842D01*
X158795990Y-111056589D01*
X158633475Y-110813368D01*
X158426632Y-110606525D01*
X158252240Y-110490000D01*
X158426632Y-110373475D01*
X158633475Y-110166632D01*
X158795990Y-109923411D01*
X158907932Y-109653158D01*
X158965000Y-109366260D01*
X158965000Y-109073740D01*
X158907932Y-108786842D01*
X158795990Y-108516589D01*
X158633475Y-108273368D01*
X158426632Y-108066525D01*
X158252240Y-107950000D01*
X158426632Y-107833475D01*
X158633475Y-107626632D01*
X158795990Y-107383411D01*
X158907932Y-107113158D01*
X158965000Y-106826260D01*
X158965000Y-106533740D01*
X158907932Y-106246842D01*
X158795990Y-105976589D01*
X158660296Y-105773508D01*
X159258000Y-105175804D01*
X159258000Y-119253000D01*
X139192000Y-119253000D01*
X139192000Y-90682500D01*
X139631928Y-90682500D01*
X139644188Y-90806982D01*
X139680498Y-90926680D01*
X139739463Y-91036994D01*
X139818815Y-91133685D01*
X139915506Y-91213037D01*
X140025820Y-91272002D01*
X140145518Y-91308312D01*
X140270000Y-91320572D01*
X140684250Y-91317500D01*
X140843000Y-91158750D01*
X140843000Y-90297000D01*
X141097000Y-90297000D01*
X141097000Y-91158750D01*
X141255750Y-91317500D01*
X141670000Y-91320572D01*
X141794482Y-91308312D01*
X141914180Y-91272002D01*
X142024494Y-91213037D01*
X142121185Y-91133685D01*
X142200537Y-91036994D01*
X142259502Y-90926680D01*
X142295812Y-90806982D01*
X142308072Y-90682500D01*
X142305000Y-90455750D01*
X142146250Y-90297000D01*
X141097000Y-90297000D01*
X140843000Y-90297000D01*
X139793750Y-90297000D01*
X139635000Y-90455750D01*
X139631928Y-90682500D01*
X139192000Y-90682500D01*
X139192000Y-74080000D01*
X153451928Y-74080000D01*
X153455000Y-74644250D01*
X153613750Y-74803000D01*
X154813000Y-74803000D01*
X154813000Y-73603750D01*
X155067000Y-73603750D01*
X155067000Y-74803000D01*
X156266250Y-74803000D01*
X156425000Y-74644250D01*
X156428072Y-74080000D01*
X156415812Y-73955518D01*
X156379502Y-73835820D01*
X156320537Y-73725506D01*
X156241185Y-73628815D01*
X156144494Y-73549463D01*
X156034180Y-73490498D01*
X155914482Y-73454188D01*
X155790000Y-73441928D01*
X155225750Y-73445000D01*
X155067000Y-73603750D01*
X154813000Y-73603750D01*
X154654250Y-73445000D01*
X154090000Y-73441928D01*
X153965518Y-73454188D01*
X153845820Y-73490498D01*
X153735506Y-73549463D01*
X153638815Y-73628815D01*
X153559463Y-73725506D01*
X153500498Y-73835820D01*
X153464188Y-73955518D01*
X153451928Y-74080000D01*
X139192000Y-74080000D01*
X139192000Y-72517000D01*
X159258000Y-72517000D01*
X159258000Y-99763198D01*
G37*
G04 #@! TD.AperFunction*
D15*
X155067000Y-111633000D02*
X155087000Y-111633000D01*
X155087000Y-111887000D01*
X155067000Y-111887000D01*
X155067000Y-114173000D01*
X155087000Y-114173000D01*
X155087000Y-114427000D01*
X155067000Y-114427000D01*
X155067000Y-114447000D01*
X154813000Y-114447000D01*
X154813000Y-114427000D01*
X153619845Y-114427000D01*
X153498524Y-114656890D01*
X153543175Y-114804099D01*
X153668359Y-115066920D01*
X153842412Y-115300269D01*
X154058645Y-115495178D01*
X154175534Y-115564805D01*
X153993368Y-115686525D01*
X153786525Y-115893368D01*
X153661822Y-116080000D01*
X150174802Y-116080000D01*
X147538072Y-113443271D01*
X147538072Y-112614990D01*
X152267688Y-112614990D01*
X152305010Y-112618666D01*
X152342332Y-112614990D01*
X152342343Y-112614990D01*
X152453996Y-112603993D01*
X152597257Y-112560536D01*
X152729286Y-112489964D01*
X152845011Y-112394991D01*
X152868814Y-112365987D01*
X153455000Y-111779801D01*
X153455000Y-111887002D01*
X153619844Y-111887002D01*
X153498524Y-112116890D01*
X153543175Y-112264099D01*
X153668359Y-112526920D01*
X153842412Y-112760269D01*
X154058645Y-112955178D01*
X154184255Y-113030000D01*
X154058645Y-113104822D01*
X153842412Y-113299731D01*
X153668359Y-113533080D01*
X153543175Y-113795901D01*
X153498524Y-113943110D01*
X153619845Y-114173000D01*
X154813000Y-114173000D01*
X154813000Y-111887000D01*
X154793000Y-111887000D01*
X154793000Y-111633000D01*
X154813000Y-111633000D01*
X154813000Y-111613000D01*
X155067000Y-111613000D01*
X155067000Y-111633000D01*
G04 #@! TA.AperFunction,Conductor*
D16*
G36*
X155067000Y-111633000D02*
G01*
X155087000Y-111633000D01*
X155087000Y-111887000D01*
X155067000Y-111887000D01*
X155067000Y-114173000D01*
X155087000Y-114173000D01*
X155087000Y-114427000D01*
X155067000Y-114427000D01*
X155067000Y-114447000D01*
X154813000Y-114447000D01*
X154813000Y-114427000D01*
X153619845Y-114427000D01*
X153498524Y-114656890D01*
X153543175Y-114804099D01*
X153668359Y-115066920D01*
X153842412Y-115300269D01*
X154058645Y-115495178D01*
X154175534Y-115564805D01*
X153993368Y-115686525D01*
X153786525Y-115893368D01*
X153661822Y-116080000D01*
X150174802Y-116080000D01*
X147538072Y-113443271D01*
X147538072Y-112614990D01*
X152267688Y-112614990D01*
X152305010Y-112618666D01*
X152342332Y-112614990D01*
X152342343Y-112614990D01*
X152453996Y-112603993D01*
X152597257Y-112560536D01*
X152729286Y-112489964D01*
X152845011Y-112394991D01*
X152868814Y-112365987D01*
X153455000Y-111779801D01*
X153455000Y-111887002D01*
X153619844Y-111887002D01*
X153498524Y-112116890D01*
X153543175Y-112264099D01*
X153668359Y-112526920D01*
X153842412Y-112760269D01*
X154058645Y-112955178D01*
X154184255Y-113030000D01*
X154058645Y-113104822D01*
X153842412Y-113299731D01*
X153668359Y-113533080D01*
X153543175Y-113795901D01*
X153498524Y-113943110D01*
X153619845Y-114173000D01*
X154813000Y-114173000D01*
X154813000Y-111887000D01*
X154793000Y-111887000D01*
X154793000Y-111633000D01*
X154813000Y-111633000D01*
X154813000Y-111613000D01*
X155067000Y-111613000D01*
X155067000Y-111633000D01*
G37*
G04 #@! TD.AperFunction*
D15*
X146243748Y-110475858D02*
X146229605Y-110490000D01*
X146243748Y-110504143D01*
X146064143Y-110683748D01*
X146050000Y-110669605D01*
X146035858Y-110683748D01*
X145856253Y-110504143D01*
X145870395Y-110490000D01*
X145856253Y-110475858D01*
X146035858Y-110296253D01*
X146050000Y-110310395D01*
X146064143Y-110296253D01*
X146243748Y-110475858D01*
G04 #@! TA.AperFunction,Conductor*
D16*
G36*
X146243748Y-110475858D02*
G01*
X146229605Y-110490000D01*
X146243748Y-110504143D01*
X146064143Y-110683748D01*
X146050000Y-110669605D01*
X146035858Y-110683748D01*
X145856253Y-110504143D01*
X145870395Y-110490000D01*
X145856253Y-110475858D01*
X146035858Y-110296253D01*
X146050000Y-110310395D01*
X146064143Y-110296253D01*
X146243748Y-110475858D01*
G37*
G04 #@! TD.AperFunction*
D15*
X155067000Y-109093000D02*
X155087000Y-109093000D01*
X155087000Y-109347000D01*
X155067000Y-109347000D01*
X155067000Y-109367000D01*
X154813000Y-109367000D01*
X154813000Y-109347000D01*
X154793000Y-109347000D01*
X154793000Y-109093000D01*
X154813000Y-109093000D01*
X154813000Y-109073000D01*
X155067000Y-109073000D01*
X155067000Y-109093000D01*
G04 #@! TA.AperFunction,Conductor*
D16*
G36*
X155067000Y-109093000D02*
G01*
X155087000Y-109093000D01*
X155087000Y-109347000D01*
X155067000Y-109347000D01*
X155067000Y-109367000D01*
X154813000Y-109367000D01*
X154813000Y-109347000D01*
X154793000Y-109347000D01*
X154793000Y-109093000D01*
X154813000Y-109093000D01*
X154813000Y-109073000D01*
X155067000Y-109073000D01*
X155067000Y-109093000D01*
G37*
G04 #@! TD.AperFunction*
D15*
X155067000Y-106553000D02*
X155087000Y-106553000D01*
X155087000Y-106807000D01*
X155067000Y-106807000D01*
X155067000Y-106827000D01*
X154813000Y-106827000D01*
X154813000Y-106807000D01*
X154793000Y-106807000D01*
X154793000Y-106553000D01*
X154813000Y-106553000D01*
X154813000Y-106533000D01*
X155067000Y-106533000D01*
X155067000Y-106553000D01*
G04 #@! TA.AperFunction,Conductor*
D16*
G36*
X155067000Y-106553000D02*
G01*
X155087000Y-106553000D01*
X155087000Y-106807000D01*
X155067000Y-106807000D01*
X155067000Y-106827000D01*
X154813000Y-106827000D01*
X154813000Y-106807000D01*
X154793000Y-106807000D01*
X154793000Y-106553000D01*
X154813000Y-106553000D01*
X154813000Y-106533000D01*
X155067000Y-106533000D01*
X155067000Y-106553000D01*
G37*
G04 #@! TD.AperFunction*
D15*
X148745518Y-94325812D02*
X148810001Y-94332163D01*
X148810000Y-96192677D01*
X148806324Y-96230000D01*
X148810000Y-96267322D01*
X148810000Y-96267332D01*
X148820997Y-96378985D01*
X148834956Y-96425001D01*
X148864454Y-96522246D01*
X148935026Y-96654276D01*
X148974871Y-96702826D01*
X149029999Y-96770001D01*
X149059003Y-96793804D01*
X150566200Y-98301002D01*
X150589999Y-98330001D01*
X150618997Y-98353799D01*
X150705723Y-98424974D01*
X150837753Y-98495546D01*
X150981014Y-98539003D01*
X151092667Y-98550000D01*
X151092676Y-98550000D01*
X151129999Y-98553676D01*
X151167322Y-98550000D01*
X153545986Y-98550000D01*
X153543175Y-98555901D01*
X153498524Y-98703110D01*
X153619845Y-98933000D01*
X154813000Y-98933000D01*
X154813000Y-98913000D01*
X155067000Y-98913000D01*
X155067000Y-98933000D01*
X155087000Y-98933000D01*
X155087000Y-99187000D01*
X155067000Y-99187000D01*
X155067000Y-101473000D01*
X155087000Y-101473000D01*
X155087000Y-101727000D01*
X155067000Y-101727000D01*
X155067000Y-101747000D01*
X154813000Y-101747000D01*
X154813000Y-101727000D01*
X153619845Y-101727000D01*
X153498524Y-101956890D01*
X153543175Y-102104099D01*
X153549870Y-102118155D01*
X153521014Y-102120997D01*
X153377753Y-102164454D01*
X153245724Y-102235026D01*
X153129999Y-102329999D01*
X153106201Y-102358997D01*
X149450200Y-106014999D01*
X147406753Y-106014999D01*
X147477932Y-105843158D01*
X147535000Y-105556260D01*
X147535000Y-105263740D01*
X147477932Y-104976842D01*
X147365990Y-104706589D01*
X147203475Y-104463368D01*
X146996632Y-104256525D01*
X146810000Y-104131822D01*
X146810000Y-99416890D01*
X153498524Y-99416890D01*
X153543175Y-99564099D01*
X153668359Y-99826920D01*
X153842412Y-100060269D01*
X154058645Y-100255178D01*
X154184255Y-100330000D01*
X154058645Y-100404822D01*
X153842412Y-100599731D01*
X153668359Y-100833080D01*
X153543175Y-101095901D01*
X153498524Y-101243110D01*
X153619845Y-101473000D01*
X154813000Y-101473000D01*
X154813000Y-99187000D01*
X153619845Y-99187000D01*
X153498524Y-99416890D01*
X146810000Y-99416890D01*
X146810000Y-98739801D01*
X148466004Y-97083798D01*
X148495001Y-97060001D01*
X148589974Y-96944276D01*
X148660546Y-96812247D01*
X148704003Y-96668986D01*
X148715000Y-96557333D01*
X148715000Y-96557323D01*
X148718676Y-96520000D01*
X148715000Y-96482677D01*
X148715000Y-94316554D01*
X148745518Y-94325812D01*
G04 #@! TA.AperFunction,Conductor*
D16*
G36*
X148745518Y-94325812D02*
G01*
X148810001Y-94332163D01*
X148810000Y-96192677D01*
X148806324Y-96230000D01*
X148810000Y-96267322D01*
X148810000Y-96267332D01*
X148820997Y-96378985D01*
X148834956Y-96425001D01*
X148864454Y-96522246D01*
X148935026Y-96654276D01*
X148974871Y-96702826D01*
X149029999Y-96770001D01*
X149059003Y-96793804D01*
X150566200Y-98301002D01*
X150589999Y-98330001D01*
X150618997Y-98353799D01*
X150705723Y-98424974D01*
X150837753Y-98495546D01*
X150981014Y-98539003D01*
X151092667Y-98550000D01*
X151092676Y-98550000D01*
X151129999Y-98553676D01*
X151167322Y-98550000D01*
X153545986Y-98550000D01*
X153543175Y-98555901D01*
X153498524Y-98703110D01*
X153619845Y-98933000D01*
X154813000Y-98933000D01*
X154813000Y-98913000D01*
X155067000Y-98913000D01*
X155067000Y-98933000D01*
X155087000Y-98933000D01*
X155087000Y-99187000D01*
X155067000Y-99187000D01*
X155067000Y-101473000D01*
X155087000Y-101473000D01*
X155087000Y-101727000D01*
X155067000Y-101727000D01*
X155067000Y-101747000D01*
X154813000Y-101747000D01*
X154813000Y-101727000D01*
X153619845Y-101727000D01*
X153498524Y-101956890D01*
X153543175Y-102104099D01*
X153549870Y-102118155D01*
X153521014Y-102120997D01*
X153377753Y-102164454D01*
X153245724Y-102235026D01*
X153129999Y-102329999D01*
X153106201Y-102358997D01*
X149450200Y-106014999D01*
X147406753Y-106014999D01*
X147477932Y-105843158D01*
X147535000Y-105556260D01*
X147535000Y-105263740D01*
X147477932Y-104976842D01*
X147365990Y-104706589D01*
X147203475Y-104463368D01*
X146996632Y-104256525D01*
X146810000Y-104131822D01*
X146810000Y-99416890D01*
X153498524Y-99416890D01*
X153543175Y-99564099D01*
X153668359Y-99826920D01*
X153842412Y-100060269D01*
X154058645Y-100255178D01*
X154184255Y-100330000D01*
X154058645Y-100404822D01*
X153842412Y-100599731D01*
X153668359Y-100833080D01*
X153543175Y-101095901D01*
X153498524Y-101243110D01*
X153619845Y-101473000D01*
X154813000Y-101473000D01*
X154813000Y-99187000D01*
X153619845Y-99187000D01*
X153498524Y-99416890D01*
X146810000Y-99416890D01*
X146810000Y-98739801D01*
X148466004Y-97083798D01*
X148495001Y-97060001D01*
X148589974Y-96944276D01*
X148660546Y-96812247D01*
X148704003Y-96668986D01*
X148715000Y-96557333D01*
X148715000Y-96557323D01*
X148718676Y-96520000D01*
X148715000Y-96482677D01*
X148715000Y-94316554D01*
X148745518Y-94325812D01*
G37*
G04 #@! TD.AperFunction*
D15*
X155067000Y-104013000D02*
X155087000Y-104013000D01*
X155087000Y-104267000D01*
X155067000Y-104267000D01*
X155067000Y-104287000D01*
X154813000Y-104287000D01*
X154813000Y-104267000D01*
X154793000Y-104267000D01*
X154793000Y-104013000D01*
X154813000Y-104013000D01*
X154813000Y-103993000D01*
X155067000Y-103993000D01*
X155067000Y-104013000D01*
G04 #@! TA.AperFunction,Conductor*
D16*
G36*
X155067000Y-104013000D02*
G01*
X155087000Y-104013000D01*
X155087000Y-104267000D01*
X155067000Y-104267000D01*
X155067000Y-104287000D01*
X154813000Y-104287000D01*
X154813000Y-104267000D01*
X154793000Y-104267000D01*
X154793000Y-104013000D01*
X154813000Y-104013000D01*
X154813000Y-103993000D01*
X155067000Y-103993000D01*
X155067000Y-104013000D01*
G37*
G04 #@! TD.AperFunction*
G04 #@! TD*
M02*
