G04 This is an RS-274x file exported by *
G04 gerbv version 2.7.0 *
G04 More information is available about gerbv at *
G04 http://gerbv.geda-project.org/ *
G04 --End of header info--*
%MOIN*%
%FSLAX36Y36*%
%IPPOS*%
G04 --Define apertures--*
%ADD10C,0.0709*%
%ADD11O,0.0709X0.0709*%
G04 --Start main section--*
G36*
G01X5916142Y-3690976D02*
G01X5861024Y-3690976D01*
G75*
G02X5859024Y-3688976I0000000J0002000D01*
G01X5859024Y-3625984D01*
G75*
G02X5861024Y-3623984I0002000J0000000D01*
G01X5916142Y-3623984D01*
G75*
G02X5918142Y-3625984I0000000J-002000D01*
G01X5918142Y-3688976D01*
G75*
G02X5916142Y-3690976I-002000J0000000D01*
G37*
G36*
G01X5916142Y-3376016D02*
G01X5861024Y-3376016D01*
G75*
G02X5859024Y-3374016I0000000J0002000D01*
G01X5859024Y-3311024D01*
G75*
G02X5861024Y-3309024I0002000J0000000D01*
G01X5916142Y-3309024D01*
G75*
G02X5918142Y-3311024I0000000J-002000D01*
G01X5918142Y-3374016D01*
G75*
G02X5916142Y-3376016I-002000J0000000D01*
G37*
G36*
G01X5738976Y-3690976D02*
G01X5683858Y-3690976D01*
G75*
G02X5681858Y-3688976I0000000J0002000D01*
G01X5681858Y-3625984D01*
G75*
G02X5683858Y-3623984I0002000J0000000D01*
G01X5738976Y-3623984D01*
G75*
G02X5740976Y-3625984I0000000J-002000D01*
G01X5740976Y-3688976D01*
G75*
G02X5738976Y-3690976I-002000J0000000D01*
G37*
G36*
G01X5738976Y-3376016D02*
G01X5683858Y-3376016D01*
G75*
G02X5681858Y-3374016I0000000J0002000D01*
G01X5681858Y-3311024D01*
G75*
G02X5683858Y-3309024I0002000J0000000D01*
G01X5738976Y-3309024D01*
G75*
G02X5740976Y-3311024I0000000J-002000D01*
G01X5740976Y-3374016D01*
G75*
G02X5738976Y-3376016I-002000J0000000D01*
G37*
G36*
G01X5531259Y-3527823D02*
G01X5568741Y-3527823D01*
G75*
G02X5579559Y-3538641I0000000J-010818D01*
G01X5579559Y-3561359D01*
G75*
G02X5568741Y-3572177I-010818J0000000D01*
G01X5531259Y-3572177D01*
G75*
G02X5520441Y-3561359I0000000J0010818D01*
G01X5520441Y-3538641D01*
G75*
G02X5531259Y-3527823I0010818J0000000D01*
G37*
G36*
G01X5531259Y-3455972D02*
G01X5568741Y-3455972D01*
G75*
G02X5579559Y-3466791I0000000J-010818D01*
G01X5579559Y-3489509D01*
G75*
G02X5568741Y-3500327I-010818J0000000D01*
G01X5531259Y-3500327D01*
G75*
G02X5520441Y-3489509I0000000J0010818D01*
G01X5520441Y-3466791D01*
G75*
G02X5531259Y-3455972I0010818J0000000D01*
G37*
G54D10*
G01X5650000Y-4150000D03*
G01X5650000Y-4250000D03*
G01X5650000Y-4350000D03*
G01X5650000Y-4450000D03*
G01X5750000Y-4150000D03*
G01X5750000Y-4250000D03*
G01X5750000Y-4350000D03*
G36*
G01X5785465Y-4424966D02*
G01X5785465Y-4475034D01*
G75*
G02X5775034Y-4485465I-010431J0000000D01*
G01X5724966Y-4485465D01*
G75*
G02X5714535Y-4475034I0000000J0010431D01*
G01X5714535Y-4424966D01*
G75*
G02X5724966Y-4414535I0010431J0000000D01*
G01X5775034Y-4414535D01*
G75*
G02X5785465Y-4424966I0000000J-010431D01*
G37*
G54D11*
G01X6100000Y-3700000D03*
G01X6200000Y-3700000D03*
G01X6100000Y-3800000D03*
G01X6200000Y-3800000D03*
G01X6100000Y-3900000D03*
G01X6200000Y-3900000D03*
G01X6100000Y-4000000D03*
G01X6200000Y-4000000D03*
G01X6100000Y-4100000D03*
G01X6200000Y-4100000D03*
G01X6100000Y-4200000D03*
G01X6200000Y-4200000D03*
G01X6100000Y-4300000D03*
G01X6200000Y-4300000D03*
G01X6100000Y-4400000D03*
G01X6200000Y-4400000D03*
G01X6100000Y-4500000D03*
G01X6200000Y-4500000D03*
G01X6100000Y-4600000D03*
G36*
G01X6235465Y-4566535D02*
G01X6235465Y-4633465D01*
G75*
G02X6233465Y-4635465I-002000J0000000D01*
G01X6166535Y-4635465D01*
G75*
G02X6164535Y-4633465I0000000J0002000D01*
G01X6164535Y-4566535D01*
G75*
G02X6166535Y-4564535I0002000J0000000D01*
G01X6233465Y-4564535D01*
G75*
G02X6235465Y-4566535I0000000J-002000D01*
G37*
G01X6100000Y-3450000D03*
G01X6100000Y-3350000D03*
G01X6100000Y-3250000D03*
G01X6100000Y-3150000D03*
G01X6100000Y-3050000D03*
G36*
G01X6064535Y-2983465D02*
G01X6064535Y-2916535D01*
G75*
G02X6066535Y-2914535I0002000J0000000D01*
G01X6133465Y-2914535D01*
G75*
G02X6135465Y-2916535I0000000J-002000D01*
G01X6135465Y-2983465D01*
G75*
G02X6133465Y-2985465I-002000J0000000D01*
G01X6066535Y-2985465D01*
G75*
G02X6064535Y-2983465I0000000J0002000D01*
G37*
M02*
